<mxfile host="app.diagrams.net" modified="2021-09-26T04:57:38.050Z" agent="5.0 (Windows)" etag="Qm8w7DjLhfB9yhmj-GA5" version="15.2.9" type="github">
  <diagram id="oARoW2ozjGi8G3ESF0JC" name="Page-1">
    <mxGraphModel dx="1888" dy="1664" grid="1" gridSize="10" guides="1" tooltips="1" connect="1" arrows="1" fold="1" page="1" pageScale="1" pageWidth="850" pageHeight="1100" math="0" shadow="0">
      <root>
        <mxCell id="0" />
        <mxCell id="1" parent="0" />
        <mxCell id="qIm7GC5KWyZwUsV8t1Zg-4" style="edgeStyle=orthogonalEdgeStyle;rounded=0;orthogonalLoop=1;jettySize=auto;html=1;exitX=0.5;exitY=1;exitDx=0;exitDy=0;entryX=0.5;entryY=0;entryDx=0;entryDy=0;" parent="1" source="qIm7GC5KWyZwUsV8t1Zg-1" target="qIm7GC5KWyZwUsV8t1Zg-3" edge="1">
          <mxGeometry relative="1" as="geometry" />
        </mxCell>
        <mxCell id="qIm7GC5KWyZwUsV8t1Zg-1" value="Start Game" style="rounded=1;whiteSpace=wrap;html=1;fillColor=#b0e3e6;strokeColor=#0e8088;" parent="1" vertex="1">
          <mxGeometry x="335" y="-730" width="120" height="60" as="geometry" />
        </mxCell>
        <mxCell id="qIm7GC5KWyZwUsV8t1Zg-6" style="edgeStyle=orthogonalEdgeStyle;rounded=0;orthogonalLoop=1;jettySize=auto;html=1;exitX=1;exitY=0.5;exitDx=0;exitDy=0;entryX=0;entryY=0.5;entryDx=0;entryDy=0;" parent="1" source="qIm7GC5KWyZwUsV8t1Zg-3" target="qIm7GC5KWyZwUsV8t1Zg-5" edge="1">
          <mxGeometry relative="1" as="geometry" />
        </mxCell>
        <mxCell id="qIm7GC5KWyZwUsV8t1Zg-3" value="Enter Game Name and/or lobby id" style="rounded=1;whiteSpace=wrap;html=1;fillColor=#d80073;strokeColor=#A50040;fontColor=#ffffff;" parent="1" vertex="1">
          <mxGeometry x="342.5" y="-650" width="105" height="100" as="geometry" />
        </mxCell>
        <mxCell id="qIm7GC5KWyZwUsV8t1Zg-8" value="no" style="edgeStyle=orthogonalEdgeStyle;rounded=0;orthogonalLoop=1;jettySize=auto;html=1;exitX=1;exitY=0.5;exitDx=0;exitDy=0;" parent="1" source="qIm7GC5KWyZwUsV8t1Zg-5" target="qIm7GC5KWyZwUsV8t1Zg-7" edge="1">
          <mxGeometry relative="1" as="geometry" />
        </mxCell>
        <mxCell id="qIm7GC5KWyZwUsV8t1Zg-27" style="edgeStyle=orthogonalEdgeStyle;rounded=0;orthogonalLoop=1;jettySize=auto;html=1;exitX=0.5;exitY=1;exitDx=0;exitDy=0;entryX=1;entryY=0.5;entryDx=0;entryDy=0;" parent="1" source="qIm7GC5KWyZwUsV8t1Zg-5" target="qIm7GC5KWyZwUsV8t1Zg-17" edge="1">
          <mxGeometry relative="1" as="geometry" />
        </mxCell>
        <mxCell id="qIm7GC5KWyZwUsV8t1Zg-28" value="Yes" style="edgeLabel;html=1;align=center;verticalAlign=middle;resizable=0;points=[];" parent="qIm7GC5KWyZwUsV8t1Zg-27" vertex="1" connectable="0">
          <mxGeometry x="-0.3756" y="1" relative="1" as="geometry">
            <mxPoint as="offset" />
          </mxGeometry>
        </mxCell>
        <mxCell id="qIm7GC5KWyZwUsV8t1Zg-5" value="Is name/code entered?" style="rhombus;whiteSpace=wrap;html=1;fillColor=#ffcd28;strokeColor=#d79b00;gradientColor=#ffa500;" parent="1" vertex="1">
          <mxGeometry x="495" y="-655" width="120" height="110" as="geometry" />
        </mxCell>
        <mxCell id="qIm7GC5KWyZwUsV8t1Zg-7" value="Please enter a name/code to continue" style="rounded=1;whiteSpace=wrap;html=1;fillColor=#fff2cc;strokeColor=#d6b656;gradientColor=#ffd966;" parent="1" vertex="1">
          <mxGeometry x="575" y="-740" width="120" height="60" as="geometry" />
        </mxCell>
        <mxCell id="79ZZHNsVedeg0y6FBrlF-11" style="edgeStyle=orthogonalEdgeStyle;rounded=0;orthogonalLoop=1;jettySize=auto;html=1;exitX=0;exitY=0.75;exitDx=0;exitDy=0;entryX=1;entryY=0.5;entryDx=0;entryDy=0;strokeColor=#9933FF;" edge="1" parent="1" source="qIm7GC5KWyZwUsV8t1Zg-14" target="79ZZHNsVedeg0y6FBrlF-9">
          <mxGeometry relative="1" as="geometry" />
        </mxCell>
        <mxCell id="qIm7GC5KWyZwUsV8t1Zg-14" value="Player is chosen at random to be the wabbler" style="rounded=1;whiteSpace=wrap;html=1;fillColor=#d80073;strokeColor=#A50040;fontColor=#ffffff;" parent="1" vertex="1">
          <mxGeometry x="312.5" y="-420" width="165" height="80" as="geometry" />
        </mxCell>
        <mxCell id="qIm7GC5KWyZwUsV8t1Zg-15" value="&lt;h1&gt;Wabble&lt;/h1&gt;&lt;p&gt;A game where you could communicate and your teammate would have to guess what you communicated.&lt;br&gt;&lt;/p&gt;" style="text;html=1;strokeColor=none;fillColor=none;spacing=5;spacingTop=-20;whiteSpace=wrap;overflow=hidden;rounded=0;" parent="1" vertex="1">
          <mxGeometry x="20" y="-1090" width="350" height="90" as="geometry" />
        </mxCell>
        <mxCell id="qIm7GC5KWyZwUsV8t1Zg-34" style="edgeStyle=orthogonalEdgeStyle;rounded=0;orthogonalLoop=1;jettySize=auto;html=1;exitX=0;exitY=0.5;exitDx=0;exitDy=0;entryX=1;entryY=0.5;entryDx=0;entryDy=0;" parent="1" source="qIm7GC5KWyZwUsV8t1Zg-17" target="qIm7GC5KWyZwUsV8t1Zg-30" edge="1">
          <mxGeometry relative="1" as="geometry">
            <mxPoint x="295" y="-440" as="targetPoint" />
          </mxGeometry>
        </mxCell>
        <mxCell id="qIm7GC5KWyZwUsV8t1Zg-17" value="Enter pre game lobby" style="rounded=1;whiteSpace=wrap;html=1;fillColor=#1ba1e2;strokeColor=#006EAF;fontColor=#ffffff;" parent="1" vertex="1">
          <mxGeometry x="335" y="-500" width="120" height="60" as="geometry" />
        </mxCell>
        <mxCell id="qIm7GC5KWyZwUsV8t1Zg-35" value="No" style="edgeStyle=orthogonalEdgeStyle;rounded=0;orthogonalLoop=1;jettySize=auto;html=1;entryX=0;entryY=0.5;entryDx=0;entryDy=0;exitX=0;exitY=0.5;exitDx=0;exitDy=0;" parent="1" source="qIm7GC5KWyZwUsV8t1Zg-30" target="qIm7GC5KWyZwUsV8t1Zg-33" edge="1">
          <mxGeometry relative="1" as="geometry">
            <mxPoint x="30" y="-460" as="sourcePoint" />
            <Array as="points">
              <mxPoint x="30" y="-470" />
              <mxPoint x="30" y="-600" />
            </Array>
          </mxGeometry>
        </mxCell>
        <mxCell id="qIm7GC5KWyZwUsV8t1Zg-37" style="edgeStyle=orthogonalEdgeStyle;rounded=0;orthogonalLoop=1;jettySize=auto;html=1;exitX=0.5;exitY=1;exitDx=0;exitDy=0;entryX=0;entryY=0.5;entryDx=0;entryDy=0;fillColor=#60a917;strokeColor=#00CC00;" parent="1" source="qIm7GC5KWyZwUsV8t1Zg-30" target="qIm7GC5KWyZwUsV8t1Zg-14" edge="1">
          <mxGeometry relative="1" as="geometry" />
        </mxCell>
        <mxCell id="qIm7GC5KWyZwUsV8t1Zg-44" value="Yes" style="edgeLabel;html=1;align=center;verticalAlign=middle;resizable=0;points=[];" parent="qIm7GC5KWyZwUsV8t1Zg-37" vertex="1" connectable="0">
          <mxGeometry x="0.32" y="-1" relative="1" as="geometry">
            <mxPoint as="offset" />
          </mxGeometry>
        </mxCell>
        <mxCell id="qIm7GC5KWyZwUsV8t1Zg-30" value="Has game started?" style="rhombus;whiteSpace=wrap;html=1;fillColor=#ffcd28;strokeColor=#d79b00;gradientColor=#ffa500;" parent="1" vertex="1">
          <mxGeometry x="80" y="-525" width="120" height="110" as="geometry" />
        </mxCell>
        <mxCell id="qIm7GC5KWyZwUsV8t1Zg-47" style="edgeStyle=orthogonalEdgeStyle;rounded=0;orthogonalLoop=1;jettySize=auto;html=1;exitX=0.5;exitY=0;exitDx=0;exitDy=0;entryX=0.5;entryY=1;entryDx=0;entryDy=0;" parent="1" source="qIm7GC5KWyZwUsV8t1Zg-33" target="qIm7GC5KWyZwUsV8t1Zg-46" edge="1">
          <mxGeometry relative="1" as="geometry" />
        </mxCell>
        <mxCell id="qIm7GC5KWyZwUsV8t1Zg-33" value="&lt;div&gt;Set timeout timer to 10 minutes&lt;br&gt;&lt;/div&gt;" style="rounded=1;whiteSpace=wrap;html=1;fillColor=#fff2cc;strokeColor=#d6b656;gradientColor=#ffd966;" parent="1" vertex="1">
          <mxGeometry x="105" y="-625" width="150" height="50" as="geometry" />
        </mxCell>
        <mxCell id="qIm7GC5KWyZwUsV8t1Zg-38" value="&lt;h1&gt;Wabbler&lt;/h1&gt;&lt;p&gt;Player that is chosen to distort/change their voice&lt;br&gt;&lt;/p&gt;" style="text;html=1;strokeColor=none;fillColor=none;spacing=5;spacingTop=-20;whiteSpace=wrap;overflow=hidden;rounded=0;" parent="1" vertex="1">
          <mxGeometry x="20" y="-990" width="170" height="90" as="geometry" />
        </mxCell>
        <mxCell id="qIm7GC5KWyZwUsV8t1Zg-39" value="&lt;h1&gt;Wabblee&lt;/h1&gt;Players that try to figure out the word/s that is/are said" style="text;html=1;strokeColor=none;fillColor=none;spacing=5;spacingTop=-20;whiteSpace=wrap;overflow=hidden;rounded=0;" parent="1" vertex="1">
          <mxGeometry x="20" y="-890" width="170" height="90" as="geometry" />
        </mxCell>
        <mxCell id="qIm7GC5KWyZwUsV8t1Zg-53" style="edgeStyle=orthogonalEdgeStyle;rounded=0;orthogonalLoop=1;jettySize=auto;html=1;exitX=1;exitY=0.5;exitDx=0;exitDy=0;entryX=0;entryY=0.5;entryDx=0;entryDy=0;" parent="1" source="qIm7GC5KWyZwUsV8t1Zg-41" target="DAGfyyY_b1tvWKQAuysj-1" edge="1">
          <mxGeometry relative="1" as="geometry" />
        </mxCell>
        <mxCell id="qIm7GC5KWyZwUsV8t1Zg-41" value="Player uses distortion settings to distort voice" style="rounded=1;whiteSpace=wrap;html=1;strokeColor=#006EAF;fillColor=#1ba1e2;fontColor=#ffffff;" parent="1" vertex="1">
          <mxGeometry x="322.5" y="-310" width="145" height="60" as="geometry" />
        </mxCell>
        <mxCell id="qIm7GC5KWyZwUsV8t1Zg-48" style="edgeStyle=orthogonalEdgeStyle;rounded=0;orthogonalLoop=1;jettySize=auto;html=1;exitX=1;exitY=0.5;exitDx=0;exitDy=0;entryX=0;entryY=0.5;entryDx=0;entryDy=0;" parent="1" source="qIm7GC5KWyZwUsV8t1Zg-46" target="qIm7GC5KWyZwUsV8t1Zg-3" edge="1">
          <mxGeometry relative="1" as="geometry" />
        </mxCell>
        <mxCell id="qIm7GC5KWyZwUsV8t1Zg-49" value="Yes" style="edgeLabel;html=1;align=center;verticalAlign=middle;resizable=0;points=[];" parent="qIm7GC5KWyZwUsV8t1Zg-48" vertex="1" connectable="0">
          <mxGeometry x="-0.092" relative="1" as="geometry">
            <mxPoint as="offset" />
          </mxGeometry>
        </mxCell>
        <mxCell id="qIm7GC5KWyZwUsV8t1Zg-46" value="Is timer up?" style="rhombus;whiteSpace=wrap;html=1;fillColor=#ffcd28;strokeColor=#d79b00;gradientColor=#ffa500;" parent="1" vertex="1">
          <mxGeometry x="120" y="-750" width="120" height="105" as="geometry" />
        </mxCell>
        <mxCell id="DAGfyyY_b1tvWKQAuysj-4" style="edgeStyle=orthogonalEdgeStyle;rounded=0;orthogonalLoop=1;jettySize=auto;html=1;exitX=0.5;exitY=1;exitDx=0;exitDy=0;entryX=0;entryY=0.5;entryDx=0;entryDy=0;" parent="1" source="qIm7GC5KWyZwUsV8t1Zg-51" target="qIm7GC5KWyZwUsV8t1Zg-60" edge="1">
          <mxGeometry relative="1" as="geometry" />
        </mxCell>
        <mxCell id="qIm7GC5KWyZwUsV8t1Zg-51" value="Wabblees have to manipulate settings to guess Wabblees distortion " style="rounded=1;whiteSpace=wrap;html=1;strokeColor=#006EAF;fillColor=#1ba1e2;fontColor=#ffffff;" parent="1" vertex="1">
          <mxGeometry x="312.5" y="-220" width="167.5" height="70" as="geometry" />
        </mxCell>
        <mxCell id="qIm7GC5KWyZwUsV8t1Zg-55" style="edgeStyle=orthogonalEdgeStyle;rounded=0;orthogonalLoop=1;jettySize=auto;html=1;exitX=0.5;exitY=0;exitDx=0;exitDy=0;strokeColor=#00CC00;entryX=1;entryY=0.5;entryDx=0;entryDy=0;" parent="1" source="qIm7GC5KWyZwUsV8t1Zg-52" target="DAGfyyY_b1tvWKQAuysj-10" edge="1">
          <mxGeometry relative="1" as="geometry">
            <mxPoint x="828" y="-10" as="targetPoint" />
            <Array as="points">
              <mxPoint x="675" y="-540" />
              <mxPoint x="910" y="-540" />
              <mxPoint x="910" y="5" />
            </Array>
          </mxGeometry>
        </mxCell>
        <mxCell id="qIm7GC5KWyZwUsV8t1Zg-57" value="Yes" style="edgeLabel;html=1;align=center;verticalAlign=middle;resizable=0;points=[];" parent="qIm7GC5KWyZwUsV8t1Zg-55" vertex="1" connectable="0">
          <mxGeometry x="0.3991" y="2" relative="1" as="geometry">
            <mxPoint as="offset" />
          </mxGeometry>
        </mxCell>
        <mxCell id="qIm7GC5KWyZwUsV8t1Zg-56" value="No" style="edgeStyle=orthogonalEdgeStyle;rounded=0;orthogonalLoop=1;jettySize=auto;html=1;exitX=0.5;exitY=1;exitDx=0;exitDy=0;entryX=0.5;entryY=1;entryDx=0;entryDy=0;" parent="1" source="qIm7GC5KWyZwUsV8t1Zg-52" target="qIm7GC5KWyZwUsV8t1Zg-41" edge="1">
          <mxGeometry relative="1" as="geometry">
            <Array as="points">
              <mxPoint x="675" y="-230" />
              <mxPoint x="395" y="-230" />
            </Array>
          </mxGeometry>
        </mxCell>
        <mxCell id="qIm7GC5KWyZwUsV8t1Zg-61" style="edgeStyle=orthogonalEdgeStyle;rounded=0;orthogonalLoop=1;jettySize=auto;html=1;exitX=1;exitY=0.5;exitDx=0;exitDy=0;entryX=1;entryY=0.5;entryDx=0;entryDy=0;strokeColor=#00CCCC;" parent="1" source="qIm7GC5KWyZwUsV8t1Zg-52" target="qIm7GC5KWyZwUsV8t1Zg-51" edge="1">
          <mxGeometry relative="1" as="geometry" />
        </mxCell>
        <mxCell id="DAGfyyY_b1tvWKQAuysj-3" value="Yes" style="edgeLabel;html=1;align=center;verticalAlign=middle;resizable=0;points=[];" parent="qIm7GC5KWyZwUsV8t1Zg-61" vertex="1" connectable="0">
          <mxGeometry x="0.2485" y="1" relative="1" as="geometry">
            <mxPoint as="offset" />
          </mxGeometry>
        </mxCell>
        <mxCell id="qIm7GC5KWyZwUsV8t1Zg-52" value="Has timer ended or did player submit distortion?" style="rhombus;whiteSpace=wrap;html=1;fillColor=#ffcd28;strokeColor=#d79b00;gradientColor=#ffa500;" parent="1" vertex="1">
          <mxGeometry x="590" y="-520" width="170" height="150" as="geometry" />
        </mxCell>
        <mxCell id="DAGfyyY_b1tvWKQAuysj-5" style="edgeStyle=orthogonalEdgeStyle;rounded=0;orthogonalLoop=1;jettySize=auto;html=1;exitX=1;exitY=0.5;exitDx=0;exitDy=0;entryX=1;entryY=1;entryDx=0;entryDy=0;strokeColor=#9933FF;" parent="1" source="qIm7GC5KWyZwUsV8t1Zg-60" target="qIm7GC5KWyZwUsV8t1Zg-52" edge="1">
          <mxGeometry relative="1" as="geometry" />
        </mxCell>
        <mxCell id="qIm7GC5KWyZwUsV8t1Zg-60" value="Set Timer" style="rounded=1;whiteSpace=wrap;html=1;strokeColor=#d6b656;fillColor=#fff2cc;gradientColor=#ffd966;" parent="1" vertex="1">
          <mxGeometry x="670" y="-160" width="145" height="70" as="geometry" />
        </mxCell>
        <mxCell id="DAGfyyY_b1tvWKQAuysj-2" style="edgeStyle=orthogonalEdgeStyle;rounded=0;orthogonalLoop=1;jettySize=auto;html=1;exitX=0.5;exitY=0;exitDx=0;exitDy=0;entryX=0;entryY=0.5;entryDx=0;entryDy=0;" parent="1" source="DAGfyyY_b1tvWKQAuysj-1" target="qIm7GC5KWyZwUsV8t1Zg-52" edge="1">
          <mxGeometry relative="1" as="geometry" />
        </mxCell>
        <mxCell id="DAGfyyY_b1tvWKQAuysj-1" value="Set timer" style="rounded=1;whiteSpace=wrap;html=1;strokeColor=#d6b656;fillColor=#fff2cc;gradientColor=#ffd966;" parent="1" vertex="1">
          <mxGeometry x="510" y="-380" width="120" height="60" as="geometry" />
        </mxCell>
        <mxCell id="DAGfyyY_b1tvWKQAuysj-12" value="Yes" style="edgeStyle=orthogonalEdgeStyle;rounded=0;orthogonalLoop=1;jettySize=auto;html=1;exitX=0.5;exitY=1;exitDx=0;exitDy=0;strokeColor=#00CC00;" parent="1" source="DAGfyyY_b1tvWKQAuysj-10" target="79ZZHNsVedeg0y6FBrlF-3" edge="1">
          <mxGeometry relative="1" as="geometry" />
        </mxCell>
        <mxCell id="DAGfyyY_b1tvWKQAuysj-14" style="edgeStyle=orthogonalEdgeStyle;rounded=0;orthogonalLoop=1;jettySize=auto;html=1;exitX=0;exitY=0.5;exitDx=0;exitDy=0;entryX=1;entryY=0.5;entryDx=0;entryDy=0;strokeColor=#b85450;fillColor=#f8cecc;" parent="1" source="DAGfyyY_b1tvWKQAuysj-10" target="DAGfyyY_b1tvWKQAuysj-13" edge="1">
          <mxGeometry relative="1" as="geometry" />
        </mxCell>
        <mxCell id="DAGfyyY_b1tvWKQAuysj-15" value="No" style="edgeLabel;html=1;align=center;verticalAlign=middle;resizable=0;points=[];" parent="DAGfyyY_b1tvWKQAuysj-14" vertex="1" connectable="0">
          <mxGeometry x="-0.3143" y="-1" relative="1" as="geometry">
            <mxPoint as="offset" />
          </mxGeometry>
        </mxCell>
        <mxCell id="DAGfyyY_b1tvWKQAuysj-10" value="&lt;div&gt;Did a player&lt;/div&gt;&lt;div&gt; guess correctly?&lt;/div&gt;" style="rhombus;whiteSpace=wrap;html=1;strokeColor=#d79b00;fillColor=#ffcd28;gradientColor=#ffa500;" parent="1" vertex="1">
          <mxGeometry x="665" y="-60" width="155" height="130" as="geometry" />
        </mxCell>
        <mxCell id="DAGfyyY_b1tvWKQAuysj-18" style="edgeStyle=orthogonalEdgeStyle;rounded=0;orthogonalLoop=1;jettySize=auto;html=1;exitX=0;exitY=0.5;exitDx=0;exitDy=0;entryX=0.5;entryY=1;entryDx=0;entryDy=0;strokeColor=#6c8ebf;fillColor=#dae8fc;" parent="1" source="DAGfyyY_b1tvWKQAuysj-11" target="DAGfyyY_b1tvWKQAuysj-16" edge="1">
          <mxGeometry relative="1" as="geometry" />
        </mxCell>
        <mxCell id="DAGfyyY_b1tvWKQAuysj-11" value="Player wins" style="rounded=1;whiteSpace=wrap;html=1;strokeColor=#006EAF;fillColor=#1ba1e2;fontColor=#ffffff;" parent="1" vertex="1">
          <mxGeometry x="540" y="230" width="142.5" height="70" as="geometry" />
        </mxCell>
        <mxCell id="DAGfyyY_b1tvWKQAuysj-17" style="edgeStyle=orthogonalEdgeStyle;rounded=0;orthogonalLoop=1;jettySize=auto;html=1;exitX=0.5;exitY=1;exitDx=0;exitDy=0;strokeColor=#6c8ebf;fillColor=#dae8fc;" parent="1" source="DAGfyyY_b1tvWKQAuysj-13" target="DAGfyyY_b1tvWKQAuysj-16" edge="1">
          <mxGeometry relative="1" as="geometry" />
        </mxCell>
        <mxCell id="DAGfyyY_b1tvWKQAuysj-13" value="&#39;Don&#39;t worry, everyone guessed wrong&#39;" style="rounded=1;whiteSpace=wrap;html=1;strokeColor=#A50040;fillColor=#d80073;fontColor=#ffffff;" parent="1" vertex="1">
          <mxGeometry x="390" y="-32.5" width="150" height="75" as="geometry" />
        </mxCell>
        <mxCell id="DAGfyyY_b1tvWKQAuysj-19" style="edgeStyle=orthogonalEdgeStyle;rounded=0;orthogonalLoop=1;jettySize=auto;html=1;exitX=0;exitY=0.5;exitDx=0;exitDy=0;strokeColor=#9673a6;entryX=0.5;entryY=0;entryDx=0;entryDy=0;fillColor=#e1d5e7;" parent="1" source="DAGfyyY_b1tvWKQAuysj-16" target="qIm7GC5KWyZwUsV8t1Zg-17" edge="1">
          <mxGeometry relative="1" as="geometry">
            <mxPoint x="220" y="-110" as="targetPoint" />
            <Array as="points">
              <mxPoint x="260" y="155" />
              <mxPoint x="260" y="-520" />
              <mxPoint x="395" y="-520" />
            </Array>
          </mxGeometry>
        </mxCell>
        <mxCell id="DAGfyyY_b1tvWKQAuysj-16" value="Game Ends" style="rounded=1;whiteSpace=wrap;html=1;strokeColor=#0e8088;fillColor=#b0e3e6;" parent="1" vertex="1">
          <mxGeometry x="405" y="125" width="120" height="60" as="geometry" />
        </mxCell>
        <mxCell id="79ZZHNsVedeg0y6FBrlF-4" style="edgeStyle=orthogonalEdgeStyle;rounded=0;orthogonalLoop=1;jettySize=auto;html=1;exitX=0.5;exitY=1;exitDx=0;exitDy=0;strokeColor=#007FFF;" edge="1" parent="1" source="79ZZHNsVedeg0y6FBrlF-3" target="DAGfyyY_b1tvWKQAuysj-11">
          <mxGeometry relative="1" as="geometry" />
        </mxCell>
        <mxCell id="79ZZHNsVedeg0y6FBrlF-16" value="No" style="edgeLabel;html=1;align=center;verticalAlign=middle;resizable=0;points=[];" vertex="1" connectable="0" parent="79ZZHNsVedeg0y6FBrlF-4">
          <mxGeometry x="-0.2656" y="2" relative="1" as="geometry">
            <mxPoint as="offset" />
          </mxGeometry>
        </mxCell>
        <mxCell id="79ZZHNsVedeg0y6FBrlF-7" style="edgeStyle=orthogonalEdgeStyle;rounded=0;orthogonalLoop=1;jettySize=auto;html=1;exitX=1;exitY=0.5;exitDx=0;exitDy=0;entryX=0.5;entryY=0;entryDx=0;entryDy=0;strokeColor=#00CC00;" edge="1" parent="1" source="79ZZHNsVedeg0y6FBrlF-3" target="79ZZHNsVedeg0y6FBrlF-5">
          <mxGeometry relative="1" as="geometry" />
        </mxCell>
        <mxCell id="79ZZHNsVedeg0y6FBrlF-17" value="Yes" style="edgeLabel;html=1;align=center;verticalAlign=middle;resizable=0;points=[];" vertex="1" connectable="0" parent="79ZZHNsVedeg0y6FBrlF-7">
          <mxGeometry x="0.0105" y="-1" relative="1" as="geometry">
            <mxPoint y="1" as="offset" />
          </mxGeometry>
        </mxCell>
        <mxCell id="79ZZHNsVedeg0y6FBrlF-3" value="Is there a tie?" style="rhombus;whiteSpace=wrap;html=1;fillColor=#ffcd28;strokeColor=#d79b00;gradientColor=#ffa500;" vertex="1" parent="1">
          <mxGeometry x="740" y="110" width="150" height="135" as="geometry" />
        </mxCell>
        <mxCell id="79ZZHNsVedeg0y6FBrlF-8" style="edgeStyle=orthogonalEdgeStyle;rounded=0;orthogonalLoop=1;jettySize=auto;html=1;exitX=0.5;exitY=1;exitDx=0;exitDy=0;entryX=0.5;entryY=1;entryDx=0;entryDy=0;" edge="1" parent="1" source="79ZZHNsVedeg0y6FBrlF-5" target="DAGfyyY_b1tvWKQAuysj-11">
          <mxGeometry relative="1" as="geometry" />
        </mxCell>
        <mxCell id="79ZZHNsVedeg0y6FBrlF-5" value="The player who submitted the answer the fastest win" style="rounded=1;whiteSpace=wrap;html=1;fillColor=#d80073;strokeColor=#A50040;fontColor=#ffffff;" vertex="1" parent="1">
          <mxGeometry x="930" y="200" width="160" height="60" as="geometry" />
        </mxCell>
        <mxCell id="79ZZHNsVedeg0y6FBrlF-13" style="edgeStyle=orthogonalEdgeStyle;rounded=0;orthogonalLoop=1;jettySize=auto;html=1;exitX=0.5;exitY=1;exitDx=0;exitDy=0;entryX=0;entryY=0.5;entryDx=0;entryDy=0;strokeColor=#00CC00;" edge="1" parent="1" source="79ZZHNsVedeg0y6FBrlF-9" target="qIm7GC5KWyZwUsV8t1Zg-41">
          <mxGeometry relative="1" as="geometry" />
        </mxCell>
        <mxCell id="79ZZHNsVedeg0y6FBrlF-14" value="Yes" style="edgeLabel;html=1;align=center;verticalAlign=middle;resizable=0;points=[];" vertex="1" connectable="0" parent="79ZZHNsVedeg0y6FBrlF-13">
          <mxGeometry x="-0.4703" y="-4" relative="1" as="geometry">
            <mxPoint as="offset" />
          </mxGeometry>
        </mxCell>
        <mxCell id="79ZZHNsVedeg0y6FBrlF-15" style="edgeStyle=orthogonalEdgeStyle;rounded=0;orthogonalLoop=1;jettySize=auto;html=1;exitX=0.5;exitY=0;exitDx=0;exitDy=0;entryX=0;entryY=0.25;entryDx=0;entryDy=0;strokeColor=#FF0000;" edge="1" parent="1" source="79ZZHNsVedeg0y6FBrlF-9" target="qIm7GC5KWyZwUsV8t1Zg-14">
          <mxGeometry relative="1" as="geometry" />
        </mxCell>
        <mxCell id="79ZZHNsVedeg0y6FBrlF-18" value="No" style="edgeLabel;html=1;align=center;verticalAlign=middle;resizable=0;points=[];" vertex="1" connectable="0" parent="79ZZHNsVedeg0y6FBrlF-15">
          <mxGeometry x="0.2364" y="3" relative="1" as="geometry">
            <mxPoint as="offset" />
          </mxGeometry>
        </mxCell>
        <mxCell id="79ZZHNsVedeg0y6FBrlF-9" value="Does player accept to be Wabbler?" style="rhombus;whiteSpace=wrap;html=1;gradientColor=#ffa500;fillColor=#ffcd28;strokeColor=#d79b00;" vertex="1" parent="1">
          <mxGeometry x="-40" y="-370" width="160" height="140" as="geometry" />
        </mxCell>
      </root>
    </mxGraphModel>
  </diagram>
</mxfile>
